<?xml version="1.0" encoding="UTF-8"?>
<svg id="_图层_1" data-name="图层 1" xmlns="http://www.w3.org/2000/svg" viewBox="0 0 288 270.83">
  <defs>
    <style>
      .cls-1 {
        fill: none;
      }

      .cls-1, .cls-2, .cls-3, .cls-4, .cls-5 {
        stroke-width: 0px;
      }

      .cls-2 {
        fill: #fff;
      }

      .cls-3 {
        fill: #e1672a;
      }

      .cls-4 {
        fill: #042944;
      }

      .cls-5 {
        fill: #082a45;
      }
    </style>
  </defs>
  <rect class="cls-4" x="10.7" y="197.84" width="266.16" height="49.72" rx="6.16" ry="6.16"/>
  <path class="cls-5" d="m105.37,206.54l-27.93-19.97-.39-.45c-1.98-2.3-3.85-4.47-5.6-6.81-7.26-9.72-11.78-20.73-13.43-32.73-.28-2-.41-4.2-.41-6.73v-7.06c-.03-17.78-.06-36.16.01-54.24.03-8.68.63-17.89,4.73-26.45,8.85-18.47,23.01-29.83,42.07-33.75,3.1-.64,6.44-.94,10.58-.92,3.93,0,7.87.02,11.8.04,13.16.05,26.78.11,40.13-.11,11.44-.17,20.49,1.35,28.48,4.83,18.63,8.11,29.93,22.37,33.61,42.38.64,3.51.94,7.34.94,12.07,0,7.37,0,14.74,0,22.11,0,12.99-.02,25.98,0,38.98.01,18.08-6.45,34.29-19.2,48.18-.08.09-.16.18-.24.27l-.31.36-25.29,20.61-4.74.12c-9.35-.53-54.14-1.24-68.28-.89l-6.53.15Z"/>
  <path class="cls-2" d="m136.96,28.25c-3.43-.38-5.82.81-8.29,3.29-19.7,19.9-39.57,39.64-59.37,59.43-.56.56-1.35,1.02-1.35,1.95-.02,3.37,0,6.73,0,10.85,25.66-25.36,50.82-50.23,76.37-75.48-2.83,0-5.12.2-7.35-.05Z"/>
  <path class="cls-1" d="m199.46,135.15c1.02,1.34,1.95,1.31,2.97-.03.39-.52.62-1.11.83-1.74.68-1.99.8-4.04.76-6.3.04-3.04-.36-6.17-1.75-9.13-.49-1.03-.95-2.26-2.23-2.24-1.35.02-1.52,1.46-1.97,2.43-.27.58-.36,1.25-.48,1.88-.7,3.52-.65,7.06.03,10.57.31,1.62.83,3.21,1.85,4.55Z"/>
  <path class="cls-2" d="m109.18,28.24c-2.66-.23-4.43.74-6.41,2.53-2.22,2.01-4.14,4.23-6.23,6.34-8.64,8.73-17.36,17.39-26.04,26.09-.57.57-1.29,1.05-1.51,1.89-1.03,3.84-1.5,7.73-1.08,11.82,16.83-15.85,32.74-32.32,49.47-48.63-3.02,0-5.63.17-8.2-.05Z"/>
  <path class="cls-3" d="m208.7,130.64c-.05-34.47-28.28-62.28-63.53-62.49-34.28-.2-63.88,27.37-63.55,62.67-.51,33.34,26.66,63.73,64.28,63.42,33.64-.28,62.85-27.65,62.79-63.6Z"/>
  <path class="cls-3" d="m187.07,167.75c-1.95,2.4-4.29,4.36-7.26,5.49-1.28.49-2.36.02-2.89-1.39-.51-1.37-.19-2.69.29-3.97,1.33-3.53,3.53-6.44,6.32-8.98,1.36-1.24,2.72-2.33,4.54-2.83,2.34-.64,3.34.08,3.34,2.86-.38,3.24-2.18,6.14-4.35,8.81Z"/>
  <path class="cls-3" d="m197.58,120.03c.13-.64.21-1.3.48-1.88.45-.97.62-2.41,1.97-2.43,1.28-.02,1.74,1.21,2.23,2.24,1.4,2.95,1.79,6.09,1.75,9.13.04,2.26-.08,4.3-.76,6.3-.21.62-.44,1.22-.83,1.74-1.02,1.35-1.94,1.37-2.97.03-1.02-1.34-1.54-2.93-1.85-4.55-.68-3.51-.73-7.05-.03-10.57Z"/>
  <path class="cls-2" d="m118.78,173.32c-.4-.07-.84-.08-1.04-.73-1.53-5.04-5.3-7.88-9.92-9.83-.75-.32-1.55-.57-2.35-.69-3.37-.49-6.09.81-4.84,5.16.28.98-1.57.31-2.85-1.33-8.95-11.47-12.7-24.84-11.62-39.75.7-9.59,4.03-18.52,8.91-26.86,2.95-5.05,7-9,11.38-12.73,7.75-6.61,16.62-10.87,26.63-12.63,7.15-1.26,14.34-1.17,21.57-.4,13.19,1.4,23.62,8.08,33.04,16.79,5.19,4.8,7.3,11,7.68,17.85.43,7.67-1.1,15.03-3.77,22.21-4.45,11.98-12.27,21.37-22.01,29.37-8.67,7.12-18.53,11.65-29.5,13.82-7.11,1.41-14.22.93-21.3-.25Z"/>
  <path class="cls-3" d="m137.82,186.75c-1.65-1.44-1.69-2.67-.01-4.13,1.57-1.36,3.53-1.98,5.52-2.23,3.11-.38,6.25-.45,9.28.65.33.12.69.2,1,.37,1.27.67,2.64,1.38,2.67,3.02.02,1.47-1.17,2.19-2.32,2.87-2.4,1.42-5.05,1.51-7.71,1.57-2.08.02-4.13-.17-6.11-.87-.85-.3-1.64-.67-2.32-1.26Z"/>
  <path class="cls-3" d="m178.77,143.01c3.93-2.25,5.64-5.86,5.66-10.33,0-.35.02-.71,0-1.06-.21-3.88-2.69-7.46-5.69-8.21-3.31-.83-6.77.79-9.04,4.17-1.82,2.7-2.56,5.66-2.43,8.89.25,5.93,6.36,9.48,11.5,6.55Z"/>
  <path class="cls-3" d="m116.28,131.18c-2.95-.12-4.82.98-6.21,2.92-2.99,4.16-2.54,10.16,1,13.87,4.39,4.61,11.11,3.79,13.64-1.74,1.01-2.21.96-4.59.38-6.94-1.14-4.65-5.08-8.08-8.81-8.11Z"/>
  <path class="cls-3" d="m95.04,126.25c-1.97-1.8-3.78-1.38-4.88,1.03-1.2,2.63-1.19,5.43-.89,8.18.36,3.25,1.08,6.45,3.82,8.68,1.93,1.58,3.55,1.23,4.79-.94,1.06-1.87,1.13-3.94,1.34-6.15-.36-3.9-.93-7.87-4.16-10.81Z"/>
  <path class="cls-2" d="m204.01,127.08c.04,2.26-.08,4.3-.76,6.3-.21.62-.44,1.22-.83,1.74-1.02,1.35-1.94,1.37-2.97.03-1.02-1.34-1.54-2.93-1.85-4.55-.68-3.51-.73-7.05-.03-10.57.13-.64.21-1.3.48-1.88.45-.97.62-2.41,1.97-2.43,1.28-.02,1.74,1.21,2.23,2.24,1.4,2.95,1.79,6.09,1.75,9.13Z"/>
  <path class="cls-2" d="m188.08,156.08c-1.82.49-3.18,1.59-4.54,2.83-2.78,2.53-4.98,5.45-6.32,8.98-.48,1.28-.8,2.6-.29,3.97.52,1.41,1.61,1.87,2.89,1.39,2.96-1.13,5.31-3.09,7.26-5.49,2.17-2.67,3.97-5.58,4.35-8.81,0-2.78-1-3.49-3.34-2.86Z"/>
  <path class="cls-2" d="m153.95,187.31c1.15-.68,2.34-1.41,2.32-2.87-.03-1.64-1.4-2.35-2.67-3.02-.31-.16-.66-.25-1-.37-3.03-1.11-6.17-1.03-9.28-.65-1.99.24-3.95.86-5.52,2.23-1.68,1.45-1.64,2.68.01,4.13.68.59,1.47.97,2.32,1.26,1.98.7,4.03.89,6.11.87,2.66-.05,5.31-.15,7.71-1.57Z"/>
  <path class="cls-3" d="m146.3,163.23c-6.62.33-12-4.63-11.96-10.05.05-5.63,5.32-10.29,12.1-10.21,6.99.08,12.02,5,11.96,10.23-.06,4.73-4.75,10.53-12.11,10.03Z"/>
  <path class="cls-3" d="m140.05,104.91c5.82-.47,11.11,5.3,11.01,10.57-.13,6.97-4.8,12.01-11.49,12.07-6.07.06-11.21-4.87-11.2-10.74.01-6.76,5.06-11.9,11.68-11.9Z"/>
  <path class="cls-3" d="m112.5,91c3.76-.05,5.96,2.99,4.89,6.97-1.33,4.96-4.48,8.43-9.29,10.16-4.2,1.51-7.37-.91-7.25-5.1.16-5.78,5.98-11.95,11.65-12.02Z"/>
  <path class="cls-3" d="m141.96,90.44c-2.57-.13-5.31-.4-7.42-2.81-1.51-1.74-1.89-3.84-.6-5.76,1.09-1.63,2.61-2.7,4.47-3.32,3.61-1.19,7.21-1.3,10.7.37,4.11,1.97,4.55,6.3.95,9.1-2.29,1.78-4.95,2.43-8.1,2.41Z"/>
  <path class="cls-1" d="m141.96,90.44c3.15.01,5.82-.64,8.1-2.41,3.6-2.8,3.16-7.13-.95-9.1-3.49-1.67-7.08-1.56-10.7-.37-1.86.61-3.38,1.68-4.47,3.32-1.28,1.92-.91,4.02.6,5.76,2.1,2.41,4.85,2.68,7.42,2.81Z"/>
  <path class="cls-1" d="m151.06,115.47c.1-5.27-5.2-11.04-11.01-10.57-6.62,0-11.67,5.14-11.68,11.9,0,5.87,5.13,10.8,11.2,10.74,6.69-.06,11.36-5.1,11.49-12.07Z"/>
  <path class="cls-1" d="m117.39,97.97c1.07-3.98-1.14-7.02-4.89-6.97-5.67.07-11.49,6.24-11.65,12.02-.12,4.19,3.05,6.61,7.25,5.1,4.81-1.73,7.96-5.2,9.29-10.16Z"/>
  <path class="cls-3" d="m167.27,95.43c.03-2.33.7-4.53,2.82-5.61,2.65-1.36,5.37-.6,7.69,1.05,2.61,1.86,4.73,4.23,5.82,7.35.32.9.5,1.81.52,2.77.07,4.54-3.11,7.09-7.56,6.06-4.57-1.06-9.19-6.86-9.28-11.61Z"/>
  <path class="cls-1" d="m176.56,107.04c4.45,1.04,7.62-1.52,7.56-6.06-.01-.96-.2-1.86-.52-2.77-1.1-3.13-3.21-5.49-5.82-7.35-2.31-1.65-5.03-2.41-7.68-1.05-2.12,1.09-2.78,3.29-2.82,5.61.09,4.75,4.72,10.55,9.28,11.61Z"/>
  <path class="cls-3" d="m140.35,131.15c-8.25.47-14.96-6.56-14.9-14.23.06-7.96,6.64-14.56,15.09-14.45,8.71.11,14.99,7.08,14.91,14.48-.07,6.69-5.92,14.9-15.09,14.2Z"/>
  <path class="cls-2" d="m149.28,112.92c-.07,2.17-1.54,3.9-3.68,4.37-.17.04-.37.06-.54.01-.17-.05-.32-.2-.47-.31.15-.12.3-.33.46-.34.77-.08,1.47-.28,2.09-.79,1.49-1.22,1.73-2.87,1.19-4.29-.65-1.71-2.26-2.58-4.03-2.35-2.18.28-3.59,2.42-3.1,4.57.31,1.37,1.09,2.51,1.67,3.75.98,2.1,1.22,4.24.44,6.42-.57,1.59-1.27,3.14-1.93,4.7-.06.15-.26.28-.42.34-.06.02-.23-.18-.31-.31-.82-1.4-1.62-2.81-2.43-4.22-.72-1.25-1.45-2.49-2.19-3.74-.4-.68-.82-1.36-1.25-2.03-.91-1.41-1.64-2.9-1.92-4.56-.43-2.51.27-4.73,1.92-6.63,1.64-1.9,3.75-2.81,6.63-2.83,2.95.1,5.41,1.64,6.97,4.54.6,1.13.93,2.39.89,3.71Z"/>
  <g>
    <path class="cls-2" d="m48.68,204.76c-.52-.87-1.14-1.56-1.84-2.07-.73-.53-1.55-.8-2.41-.8h-10.16c-.87,0-1.68.27-2.41.8-.71.51-1.32,1.21-1.83,2.07-.5.84-.9,1.85-1.21,2.98-.3,1.14-.46,2.34-.46,3.6l.11,32.18h6.07v-10.85h9.89c.87,0,1.68-.27,2.41-.8.7-.5,1.32-1.19,1.84-2.03.51-.83.92-1.83,1.22-2.97.29-1.13.44-2.34.44-3.59v-11.94c0-1.29-.15-2.51-.44-3.62-.29-1.11-.7-2.11-1.21-2.96Zm-4.53,5.31v14.43c0,.5-.09.91-.27,1.21-.19.32-.36.32-.44.32h-8.9v-15.96c0-.5.09-.91.27-1.21.19-.32.35-.32.4-.32h8.22c.08,0,.25,0,.44.32.18.3.27.71.27,1.21Z"/>
    <rect class="cls-2" x="58.54" y="202.51" width="6.18" height="41.62"/>
    <path class="cls-2" d="m75.34,202.68c-.77.51-1.45,1.2-2,2.07-.54.84-.99,1.84-1.33,2.95-.33,1.12-.5,2.34-.5,3.64v22.79c0,1.26.17,2.46.5,3.58.34,1.11.78,2.11,1.33,2.96.56.87,1.23,1.56,2,2.06.79.52,1.67.79,2.6.79h17.19v-6.64h-16.1c-.15,0-.34-.04-.53-.36-.2-.32-.3-.69-.3-1.11v-25.34c0-.49.1-.9.29-1.19.16-.24.32-.34.54-.34h16.1v-6.64h-17.19c-.93,0-1.81.26-2.6.79Z"/>
    <polygon class="cls-2" points="115.95 201.9 107.48 218.52 107.48 201.9 101.05 201.9 101.05 243.52 107.48 243.52 107.48 226.73 115.95 243.52 123.51 243.52 112.94 222.62 123.51 201.9 115.95 201.9"/>
    <polygon class="cls-2" points="128.82 208.54 138.62 208.54 138.62 243.58 145.07 243.58 145.07 208.54 154.88 208.54 154.88 201.84 128.82 201.84 128.82 208.54"/>
    <path class="cls-2" d="m183.05,204.76c-.53-.86-1.17-1.56-1.89-2.07-.75-.53-1.58-.79-2.47-.79h-11.39c-.86,0-1.68.27-2.44.79-.74.51-1.38,1.21-1.9,2.07-.51.84-.93,1.83-1.24,2.95-.31,1.12-.47,2.34-.47,3.63v22.79c0,1.26.16,2.46.47,3.57.31,1.11.73,2.11,1.24,2.95.53.87,1.17,1.57,1.9,2.07.76.53,1.59.79,2.44.79h11.39c.89,0,1.72-.27,2.47-.79.72-.5,1.36-1.2,1.9-2.06.53-.85.95-1.85,1.25-2.96.3-1.11.45-2.31.45-3.56v-22.79c0-1.29-.15-2.51-.45-3.63-.3-1.12-.72-2.11-1.25-2.96Zm-4.63,5.31v25.34c0,.43-.1.81-.28,1.12-.2.35-.36.35-.42.35h-9.4c-.07,0-.22,0-.43-.35-.19-.32-.28-.69-.28-1.12v-25.34c0-.5.09-.91.28-1.21.2-.33.36-.33.43-.33h9.4c.07,0,.23,0,.43.32.18.3.28.71.28,1.21Z"/>
    <path class="cls-2" d="m211.67,204.75c-.55-.86-1.19-1.56-1.93-2.06-.76-.53-1.61-.79-2.5-.79h-10.65c-.9,0-1.74.27-2.5.79-.74.51-1.38,1.2-1.91,2.07-.52.84-.95,1.85-1.27,2.98-.32,1.13-.48,2.35-.48,3.6l.12,32.18h6.31v-10.85h10.38c.9,0,1.74-.27,2.5-.79.73-.5,1.38-1.19,1.93-2.03.54-.83.97-1.83,1.27-2.97.3-1.13.46-2.34.46-3.6v-11.94c0-1.29-.15-2.51-.46-3.63-.31-1.12-.73-2.11-1.27-2.96Zm-4.7,5.32v14.43c0,.5-.09.9-.28,1.2-.21.33-.4.33-.49.33h-9.35v-15.96c0-.5.09-.9.28-1.2.19-.29.35-.33.45-.33h8.62c.09,0,.28,0,.49.33.19.3.28.7.28,1.2Z"/>
    <rect class="cls-2" x="219.23" y="201.9" width="7.59" height="41.62"/>
    <path class="cls-2" d="m249.8,202.01l-.04-.18h-6.88l-9.54,41.74h6.34l2.1-9.33h9.01l2.14,9.33h6.34l-9.46-41.57Zm-.57,25.53h-5.9l2.93-12.96,2.97,12.96Z"/>
  </g>
</svg>